<?xml version="1.0" encoding="iso-8859-1"?>
<!-- Generator: Adobe Illustrator 19.0.0, SVG Export Plug-In . SVG Version: 6.00 Build 0)  -->
<svg xmlns="http://www.w3.org/2000/svg" xmlns:xlink="http://www.w3.org/1999/xlink" version="1.1" id="Layer_1" x="0px" y="0px" viewBox="0 0 512 512" style="enable-background:new 0 0 512 512;" xml:space="preserve" width="512px" height="512px">
<g>
	<g>
		<path d="M500.304,295.609c-0.426-0.38-0.86-0.746-1.301-1.103c-0.168-0.135-0.34-0.263-0.51-0.396    c-0.274-0.213-0.547-0.427-0.827-0.632c-0.21-0.154-0.424-0.3-0.635-0.448c-0.245-0.172-0.49-0.343-0.74-0.508    c-0.23-0.152-0.462-0.298-0.695-0.444c-0.24-0.151-0.48-0.3-0.722-0.445c-0.238-0.141-0.476-0.279-0.716-0.414    c-0.249-0.141-0.5-0.278-0.753-0.413c-0.232-0.124-0.464-0.244-0.699-0.362c-0.277-0.14-0.557-0.274-0.837-0.406    c-0.209-0.098-0.418-0.197-0.629-0.29c-0.331-0.148-0.665-0.288-1.001-0.426c-0.162-0.066-0.323-0.134-0.485-0.198    c-0.426-0.168-0.856-0.324-1.289-0.474c-0.073-0.026-0.146-0.053-0.219-0.078c-3.604-1.226-7.411-1.871-11.285-1.871    c-2.91,0-5.78,0.373-8.554,1.072c-0.043,0.011-0.085,0.02-0.128,0.031c-0.434,0.111-0.864,0.232-1.293,0.36    c-0.139,0.041-0.277,0.08-0.416,0.121c-9.875-2.845-49.086-13.574-141.398-32.815c-1.727-0.599-9.291-3.343-19.983-8.8    l4.713-9.565c1.969-3.995,0.326-8.829-3.668-10.797c-3.996-1.969-8.829-0.327-10.797,3.668l-4.354,8.836    c-4.314-2.609-8.865-5.563-13.546-8.87l6.039-6.843c2.946-3.338,2.628-8.434-0.712-11.381c-3.338-2.946-8.435-2.628-11.381,0.712    l-6.803,7.71c-4.496-3.696-9.023-7.721-13.5-12.094l6.567-5.441c3.428-2.843,3.906-7.925,1.064-11.354    c-2.844-3.43-7.925-3.906-11.354-1.064l-7.385,6.12c-3.383-3.88-6.691-7.982-9.886-12.313l8.387-4.528    c3.919-2.116,5.38-7.008,3.264-10.926c-2.116-3.919-7.01-5.38-10.926-3.264l-9.768,5.274    c-8.105-13.253-15.034-28.323-19.936-45.404c-0.112-0.391-0.254-0.773-0.424-1.143c-0.659-1.433-6.803-14-19.62-14    c-12.646,0-24.194,12.005-36.236,37.722c-6.783,3.679-29.391,14.861-47.498,11.474c-0.201-0.038-0.411-0.065-0.609-0.105    c-0.449-0.092-0.89-0.215-1.333-0.327c-0.367-0.092-0.742-0.175-1.1-0.28c-0.373-0.109-0.738-0.244-1.105-0.368    c-0.405-0.137-0.817-0.264-1.211-0.417c-0.354-0.138-0.697-0.301-1.045-0.453c-0.385-0.168-0.777-0.327-1.149-0.512    c-0.393-0.195-0.773-0.419-1.158-0.635c-0.306-0.172-0.622-0.33-0.92-0.514c-0.671-0.414-1.329-0.859-1.967-1.344    c-1.001-0.759-1.989-1.489-2.971-2.206c-0.217-0.158-0.433-0.315-0.649-0.472c-2.034-1.472-4.028-2.851-5.982-4.139    c-0.061-0.04-0.121-0.081-0.183-0.12c-19.316-12.699-34.622-16.389-45.578-10.948c-8.357,4.15-13.073,12.916-14.068,26.08    c-0.018,0.232-0.027,0.478-0.042,0.714c-0.041,0.635-0.085,1.269-0.109,1.923c-0.034,0.922-0.054,1.871-0.054,2.848    c0,0.506-0.004,1.039-0.01,1.576c-0.002,0.212-0.004,0.425-0.008,0.644c-0.004,0.29-0.01,0.591-0.015,0.89    c-0.046,2.452-0.142,5.262-0.289,8.412c0,0.011,0,0.021,0,0.032c-2.089,44.675-13.797,142.61-15.587,157.415    c-0.01,0.084-0.02,0.171-0.03,0.25c-0.017,0.142-0.032,0.263-0.047,0.387c-0.018,0.151-0.034,0.288-0.049,0.413    c-0.008,0.058-0.014,0.113-0.02,0.166c-0.016,0.13-0.029,0.24-0.041,0.332c-0.023,0.183-0.039,0.314-0.042,0.346    c-0.002,0.021-0.002,0.043-0.004,0.066c-0.019,0.168-0.027,0.339-0.034,0.511c-0.005,0.114-0.016,0.228-0.017,0.341    c0,0.021-0.003,0.042-0.003,0.063v26.999c0,19.334,15.729,35.062,35.062,35.062h161.501c4.454,0,8.063-3.609,8.063-8.063    s-3.609-8.063-8.063-8.063H35.062c-10.441,0-18.936-8.494-18.936-18.936v-18.936h67.307h173.19c0.013,0,0.026,0.002,0.039,0.002    c0.011,0,0.02-0.002,0.031-0.002h42.963c0.25,0,0.503,0.004,0.76,0.015c0.017,0.001,1.011,0.04,2.837,0.076    c-11.87,9.697-19.793,22.527-23.328,37.78h-55.767c-4.454,0-8.063,3.609-8.063,8.063s3.609,8.063,8.063,8.063h62.447h12.417    c0.205,0.006,0.449,0.015,0.732,0.024c1.98,0.059,5.831,0.148,11.11,0.148c15.197,0,38.812-0.703,65.012-4.055    c59.975-7.67,102.782-25.443,127.231-52.826C515.984,330.693,514.727,308.485,500.304,295.609z M449.03,300.237    c-0.139,0.134-0.276,0.27-0.418,0.404c-0.178,0.169-0.357,0.336-0.541,0.504c-0.26,0.238-0.53,0.473-0.802,0.707    c-0.186,0.161-0.37,0.323-0.561,0.484c-0.295,0.246-0.599,0.49-0.905,0.734c-0.183,0.145-0.36,0.291-0.546,0.437    c-0.36,0.28-0.734,0.556-1.111,0.833c-0.145,0.106-0.285,0.215-0.433,0.321c-0.531,0.383-1.077,0.762-1.64,1.14    c-0.083,0.056-0.172,0.111-0.256,0.167c-0.481,0.319-0.969,0.636-1.471,0.951c-0.202,0.127-0.413,0.252-0.618,0.377    c-0.395,0.242-0.79,0.484-1.198,0.722c-0.243,0.143-0.495,0.284-0.742,0.426c-0.383,0.219-0.768,0.439-1.162,0.656    c-0.268,0.147-0.541,0.294-0.813,0.44c-0.39,0.21-0.783,0.419-1.183,0.627c-0.283,0.146-0.569,0.292-0.856,0.438    c-0.404,0.204-0.813,0.409-1.227,0.611c-0.296,0.144-0.592,0.288-0.892,0.431c-0.421,0.201-0.85,0.401-1.282,0.6    c-0.302,0.14-0.605,0.279-0.912,0.417c-0.452,0.203-0.911,0.404-1.371,0.604c-0.299,0.13-0.596,0.26-0.898,0.389    c-0.497,0.212-1.004,0.42-1.513,0.628c-0.28,0.115-0.555,0.23-0.837,0.344c-0.603,0.243-1.219,0.482-1.837,0.72    c-0.198,0.076-0.389,0.154-0.588,0.229c-0.829,0.315-1.67,0.627-2.524,0.934c-0.119,0.043-0.242,0.084-0.361,0.127    c-0.731,0.261-1.47,0.52-2.22,0.776c-0.285,0.097-0.577,0.192-0.865,0.288c-0.594,0.199-1.189,0.397-1.793,0.592    c-0.342,0.111-0.689,0.218-1.034,0.328c-0.562,0.177-1.127,0.355-1.698,0.529c-0.371,0.114-0.747,0.226-1.124,0.338    c-0.562,0.168-1.127,0.334-1.696,0.5c-0.386,0.112-0.774,0.221-1.163,0.332c-0.571,0.161-1.146,0.321-1.726,0.479    c-0.398,0.109-0.798,0.217-1.199,0.325c-0.589,0.157-1.184,0.313-1.78,0.468c-0.399,0.103-0.797,0.206-1.199,0.309    c-0.624,0.158-1.255,0.313-1.887,0.467c-0.386,0.095-0.769,0.189-1.158,0.282c-0.683,0.163-1.373,0.323-2.065,0.482    c-0.348,0.081-0.693,0.161-1.044,0.241c-0.846,0.19-1.702,0.377-2.563,0.562c-0.204,0.044-0.404,0.089-0.609,0.133    c-1.078,0.229-2.168,0.454-3.268,0.674c-0.202,0.041-0.409,0.078-0.611,0.119c-0.248,0.049-0.501,0.097-0.75,0.145    c-0.645,0.126-1.288,0.253-1.941,0.375c-0.375,0.071-0.756,0.139-1.134,0.207c-0.738,0.135-1.476,0.271-2.223,0.402    c-0.441,0.077-0.887,0.154-1.332,0.23c-0.697,0.119-1.396,0.239-2.1,0.355c-0.471,0.077-0.946,0.154-1.42,0.23    c-0.686,0.11-1.373,0.218-2.065,0.326c-0.495,0.076-0.991,0.152-1.49,0.226c-0.339,0.051-0.681,0.1-1.021,0.149    c-0.041-0.447-0.109-0.884-0.157-1.328c-0.054-0.479-0.107-0.959-0.171-1.438c-2.548-19.467-12.815-35.759-22.965-47.524    C401.34,288.233,432.465,295.902,449.03,300.237z M181.166,126.128c1.779,0,3.848,2.578,4.757,4.207    c5.252,18.045,12.593,33.941,21.029,47.875l-10.011,5.406c-3.919,2.116-5.38,7.008-3.264,10.926    c1.458,2.701,4.234,4.234,7.102,4.234c1.293,0,2.606-0.312,3.824-0.969l11.267-6.083c3.812,5.299,7.762,10.248,11.776,14.882    l-9.915,8.216c-3.428,2.842-3.906,7.925-1.064,11.353c1.594,1.924,3.895,2.919,6.213,2.919c1.813,0,3.636-0.607,5.14-1.855    l10.647-8.821c5.146,5.123,10.289,9.749,15.284,13.886l-8.01,9.077c-2.946,3.338-2.628,8.434,0.712,11.381    c1.533,1.352,3.435,2.017,5.331,2.017c2.233,0,4.456-0.922,6.05-2.729l8.719-9.88c5.959,4.271,11.732,7.998,17.149,11.225    l-5.527,11.217c-1.969,3.995-0.326,8.829,3.668,10.797c1.146,0.564,2.361,0.832,3.559,0.832c2.975,0,5.836-1.652,7.239-4.501    l5.199-10.55c10.544,5.349,18.341,8.283,21.283,9.32c3.867,2.848,20.497,15.788,30.487,34.579    c-0.255-0.013-0.512-0.02-0.767-0.034c-0.85-0.046-1.694-0.105-2.542-0.16c-1.056-0.069-2.111-0.138-3.161-0.22    c-0.848-0.067-1.691-0.146-2.535-0.221c-1.036-0.094-2.073-0.187-3.103-0.294c-0.845-0.088-1.684-0.187-2.523-0.284    c-1.019-0.117-2.038-0.235-3.051-0.367c-0.84-0.109-1.675-0.228-2.51-0.346c-1.003-0.142-2.006-0.285-3.003-0.44    c-0.833-0.13-1.662-0.269-2.491-0.407c-0.988-0.166-1.975-0.333-2.957-0.513c-0.827-0.151-1.65-0.311-2.472-0.471    c-0.973-0.189-1.945-0.382-2.911-0.585c-0.819-0.172-1.635-0.352-2.45-0.533c-0.96-0.214-1.918-0.431-2.872-0.658    c-0.811-0.192-1.617-0.392-2.422-0.595c-0.946-0.238-1.89-0.48-2.831-0.73c-0.803-0.214-1.603-0.434-2.402-0.658    c-0.933-0.261-1.863-0.527-2.789-0.801c-0.793-0.234-1.583-0.475-2.372-0.719c-0.921-0.285-1.839-0.576-2.754-0.875    c-0.784-0.256-1.566-0.516-2.346-0.782c-0.907-0.309-1.81-0.624-2.711-0.945c-0.775-0.277-1.549-0.558-2.32-0.845    c-0.894-0.332-1.785-0.672-2.673-1.017c-0.767-0.298-1.532-0.6-2.294-0.907c-0.88-0.356-1.758-0.719-2.632-1.088    c-0.758-0.319-1.515-0.642-2.268-0.971c-0.869-0.38-1.732-0.768-2.594-1.16c-0.747-0.34-1.493-0.682-2.236-1.031    c-0.857-0.403-1.709-0.816-2.56-1.233c-0.738-0.361-1.474-0.722-2.207-1.093c-0.844-0.427-1.683-0.864-2.52-1.303    c-0.728-0.382-1.456-0.764-2.179-1.156c-0.832-0.45-1.658-0.913-2.483-1.375c-0.717-0.402-1.434-0.804-2.146-1.216    c-0.821-0.475-1.636-0.962-2.452-1.45c-0.705-0.423-1.412-0.843-2.112-1.275c-0.811-0.5-1.615-1.013-2.419-1.525    c-0.693-0.442-1.388-0.882-2.076-1.333c-0.799-0.524-1.59-1.061-2.381-1.596c-0.685-0.463-1.371-0.924-2.049-1.397    c-0.785-0.546-1.563-1.107-2.342-1.666c-0.674-0.484-1.349-0.964-2.019-1.458c-0.775-0.572-1.543-1.159-2.312-1.744    c-0.66-0.503-1.323-1.001-1.979-1.513c-0.768-0.6-1.528-1.215-2.289-1.828c-0.645-0.519-1.293-1.033-1.933-1.561    c-0.759-0.627-1.509-1.27-2.262-1.909c-0.631-0.536-1.266-1.068-1.893-1.614c-0.75-0.654-1.492-1.326-2.236-1.993    c-0.617-0.554-1.237-1.1-1.849-1.662c-0.746-0.685-1.482-1.389-2.22-2.088c-0.599-0.567-1.201-1.125-1.795-1.7    c-0.743-0.719-1.476-1.459-2.213-2.192c-0.578-0.576-1.161-1.144-1.735-1.728c-0.745-0.759-1.479-1.538-2.217-2.313    c-0.554-0.581-1.112-1.151-1.661-1.74c-0.768-0.824-1.526-1.669-2.285-2.508c-0.505-0.559-1.017-1.107-1.519-1.673    c-0.85-0.958-1.688-1.938-2.527-2.916c-0.402-0.468-0.81-0.925-1.208-1.397c-1.234-1.461-2.457-2.943-3.667-4.448    c-0.896-1.114-1.771-2.228-2.634-3.34c-0.286-0.37-0.564-0.739-0.847-1.108c-0.572-0.747-1.141-1.494-1.699-2.242    c-0.321-0.43-0.636-0.859-0.953-1.288c-0.51-0.691-1.013-1.382-1.509-2.072c-0.317-0.44-0.632-0.879-0.944-1.319    c-0.495-0.696-0.98-1.39-1.462-2.084c-0.288-0.415-0.58-0.831-0.863-1.245c-0.541-0.789-1.07-1.575-1.595-2.36    c-0.205-0.307-0.418-0.617-0.621-0.925c-0.714-1.077-1.413-2.15-2.096-3.218c-0.196-0.305-0.383-0.607-0.576-0.913    c-0.491-0.774-0.979-1.547-1.456-2.315c-0.256-0.413-0.504-0.821-0.756-1.232c-0.403-0.659-0.803-1.316-1.194-1.969    c-0.258-0.43-0.513-0.859-0.766-1.287c-0.377-0.638-0.748-1.271-1.115-1.902c-0.241-0.415-0.483-0.831-0.719-1.244    c-0.38-0.663-0.75-1.32-1.118-1.975c-0.205-0.364-0.414-0.732-0.615-1.094c-0.49-0.883-0.969-1.757-1.436-2.623    c-0.075-0.139-0.153-0.278-0.227-0.417c-0.519-0.964-1.022-1.917-1.515-2.86c-0.178-0.342-0.349-0.677-0.525-1.016    c-0.324-0.626-0.644-1.248-0.956-1.863c-0.191-0.377-0.377-0.749-0.564-1.122c-0.286-0.571-0.568-1.139-0.844-1.7    c-0.182-0.369-0.361-0.736-0.539-1.102c-0.275-0.568-0.544-1.128-0.81-1.684c-0.16-0.335-0.321-0.672-0.477-1.003    c-0.298-0.632-0.587-1.254-0.871-1.87c-0.109-0.234-0.221-0.475-0.328-0.707c-0.385-0.84-0.758-1.665-1.117-2.473    c-0.088-0.197-0.169-0.386-0.255-0.581c-0.272-0.616-0.54-1.226-0.798-1.821c-0.118-0.274-0.231-0.54-0.347-0.81    c-0.216-0.504-0.429-1.004-0.634-1.493c-0.116-0.276-0.229-0.547-0.342-0.818c-0.198-0.474-0.389-0.941-0.576-1.398    c-0.102-0.249-0.204-0.499-0.303-0.744c-0.198-0.49-0.389-0.968-0.575-1.437c-0.073-0.185-0.149-0.375-0.221-0.557    c-0.515-1.308-0.981-2.53-1.4-3.654c-0.045-0.12-0.085-0.232-0.129-0.349c-0.161-0.435-0.317-0.86-0.463-1.265    c-0.053-0.144-0.101-0.283-0.152-0.423c-0.133-0.372-0.262-0.733-0.383-1.076c-0.042-0.118-0.083-0.237-0.124-0.352    c-0.126-0.359-0.244-0.702-0.355-1.026c-0.026-0.076-0.054-0.157-0.08-0.232c-0.147-0.434-0.281-0.831-0.401-1.198    C172.571,126.936,180.301,126.128,181.166,126.128z M17.158,331.7c1.964-16.458,6.17-52.468,9.656-87.602    c5.43,2.765,12.653,7.307,19.805,14.411c17.561,17.445,27.155,42.039,28.57,73.191H17.158z M91.319,331.7    c-0.708-16.935-3.592-31.277-7.814-43.408c8.737,0.418,17.28-0.717,25.507-3.414c1.275-0.418,2.549-0.842,3.825-1.266    c25.777-8.57,48.04-15.97,81.432,18.973c9.952,10.417,21.86,20.619,33.713,29.116H91.319z M301.103,331.731    c-0.482-0.023-0.964-0.031-1.446-0.031h-41.073c-16.662-8.392-37.129-24.008-52.654-40.257    c-40.445-42.325-71.116-32.129-98.177-23.136c-1.255,0.418-2.508,0.834-3.763,1.245c-8.876,2.911-18.288,3.461-27.983,1.652    c-14.778-27.299-36.384-39.389-47.565-44.058c1.05-11.357,1.97-22.253,2.649-31.949c15.308,10.21,42.975,24.864,75.842,25.075    c0.018,0,0.034,0,0.053,0c4.428,0,8.034-3.576,8.062-8.012c0.028-4.453-3.559-8.086-8.012-8.115    c-35.935-0.23-65.742-20.956-74.877-28.033c0.003-0.1,0.006-0.192,0.01-0.291c0.019-0.541,0.037-1.073,0.052-1.595    c0.006-0.211,0.013-0.421,0.018-0.628c0.013-0.46,0.024-0.91,0.033-1.354c0.005-0.232,0.011-0.468,0.016-0.695    c0.009-0.431,0.014-0.848,0.02-1.263c0.003-0.204,0.006-0.416,0.009-0.616c0.006-0.6,0.01-1.185,0.01-1.748    c0-6.335,0.872-11.164,2.501-14.151c1.034-1.834,2.263-2.759,3.438-3.227c2.982-1.06,8.459-0.433,16.39,3.191    c0.462,0.213,0.928,0.429,1.401,0.659c0.233,0.113,0.474,0.235,0.712,0.353c0.539,0.269,1.082,0.544,1.633,0.834    c0.08,0.042,0.157,0.082,0.237,0.124c4.483,2.382,9.377,5.482,14.519,9.214c0.166,0.12,0.331,0.24,0.498,0.361    c0.806,0.589,1.617,1.19,2.434,1.81c0.625,0.474,1.265,0.922,1.915,1.359c0.18,0.12,0.358,0.238,0.539,0.355    c0.531,0.345,1.07,0.679,1.616,1c0.131,0.076,0.26,0.159,0.391,0.234c0.644,0.369,1.299,0.718,1.963,1.053    c0.196,0.099,0.393,0.19,0.59,0.286c0.501,0.242,1.006,0.475,1.518,0.699c0.21,0.091,0.418,0.184,0.628,0.272    c1.383,0.576,2.805,1.085,4.267,1.525c0.156,0.046,0.312,0.09,0.469,0.135c0.626,0.181,1.26,0.349,1.9,0.506    c0.109,0.026,0.216,0.054,0.325,0.08c3.897,0.922,8.049,1.392,12.448,1.392c6.397,0,12.781-1.001,18.764-2.486    c0.034-0.009,0.068-0.017,0.102-0.026c1.923-0.479,3.8-1.006,5.626-1.571c0.41-0.127,0.82-0.252,1.225-0.382    c0.327-0.105,0.648-0.212,0.971-0.318c0.547-0.181,1.089-0.363,1.625-0.549c0.212-0.074,0.424-0.147,0.633-0.221    c4.978-1.758,9.399-3.682,12.931-5.379c0.021,0.059,0.045,0.123,0.067,0.182c0.059,0.16,0.122,0.327,0.182,0.491    c0.157,0.424,0.319,0.859,0.488,1.306c0.075,0.198,0.148,0.393,0.226,0.596c0.226,0.591,0.458,1.196,0.703,1.823    c0.035,0.09,0.072,0.183,0.108,0.274c0.23,0.586,0.471,1.19,0.718,1.806c0.095,0.234,0.19,0.472,0.288,0.711    c0.206,0.509,0.419,1.028,0.638,1.556c0.095,0.229,0.187,0.453,0.284,0.685c0.3,0.719,0.611,1.454,0.933,2.206    c0.092,0.215,0.19,0.438,0.284,0.656c0.249,0.578,0.505,1.164,0.768,1.76c0.126,0.285,0.253,0.571,0.381,0.86    c0.284,0.638,0.575,1.284,0.873,1.939c0.091,0.202,0.18,0.399,0.273,0.603c0.377,0.824,0.769,1.664,1.17,2.516    c0.133,0.283,0.27,0.57,0.405,0.856c0.302,0.635,0.611,1.278,0.925,1.928c0.146,0.302,0.291,0.603,0.441,0.907    c0.172,0.35,0.347,0.705,0.523,1.06c-8.386,5.153-17.117,8.952-26.036,11.323c-4.304,1.143-6.866,5.56-5.721,9.864    c1.144,4.304,5.557,6.865,9.864,5.721c10.132-2.692,20.007-6.957,29.468-12.666c0.076,0.133,0.155,0.269,0.231,0.403    c0.195,0.341,0.389,0.681,0.587,1.022c0.52,0.899,1.049,1.804,1.59,2.716c0.091,0.155,0.18,0.306,0.272,0.461    c0.62,1.04,1.258,2.089,1.905,3.143c0.203,0.331,0.411,0.663,0.617,0.996c0.497,0.801,1.002,1.605,1.516,2.414    c0.203,0.319,0.403,0.638,0.609,0.958c0.691,1.078,1.394,2.161,2.115,3.25c0.135,0.205,0.277,0.413,0.414,0.619    c0.606,0.912,1.223,1.826,1.851,2.743c0.237,0.345,0.474,0.691,0.713,1.037c0.62,0.898,1.25,1.798,1.89,2.7    c0.169,0.238,0.333,0.474,0.503,0.712c0.796,1.115,1.608,2.232,2.436,3.351c0.215,0.29,0.434,0.582,0.651,0.873    c0.652,0.874,1.312,1.748,1.981,2.624c0.254,0.332,0.506,0.663,0.763,0.996c0.881,1.14,1.771,2.279,2.683,3.42    c19.253,24.055,41.861,43.247,67.195,57.042c1.93,1.051,3.878,2.069,5.84,3.057c0.64,0.323,1.291,0.624,1.934,0.939    c1.329,0.653,2.658,1.305,4,1.929c0.781,0.362,1.573,0.703,2.359,1.056c1.219,0.547,2.436,1.098,3.667,1.622    c0.852,0.362,1.712,0.703,2.568,1.055c1.18,0.484,2.36,0.971,3.55,1.433c0.896,0.348,1.8,0.677,2.702,1.013    c1.165,0.434,2.33,0.87,3.504,1.284c0.931,0.328,1.87,0.64,2.807,0.956c1.16,0.39,2.32,0.781,3.489,1.151    c0.958,0.304,1.921,0.594,2.886,0.885c1.163,0.352,2.328,0.7,3.499,1.032c0.979,0.278,1.965,0.544,2.951,0.808    c1.17,0.314,2.343,0.622,3.521,0.917c0.999,0.251,2.003,0.491,3.008,0.728c1.179,0.277,2.362,0.547,3.549,0.806    c1.016,0.221,2.035,0.437,3.057,0.644c1.192,0.243,2.389,0.475,3.589,0.699c1.029,0.192,2.059,0.38,3.093,0.558    c1.208,0.209,2.422,0.403,3.638,0.593c1.04,0.162,2.079,0.323,3.124,0.471c1.226,0.174,2.459,0.332,3.692,0.488    c1.047,0.131,2.093,0.264,3.146,0.382c1.249,0.14,2.506,0.262,3.763,0.384c1.049,0.101,2.099,0.205,3.153,0.294    c1.278,0.106,2.565,0.191,3.851,0.278c1.045,0.07,2.087,0.147,3.137,0.204c1.319,0.072,2.647,0.12,3.974,0.172    c1.03,0.04,2.058,0.089,3.092,0.117c0.203,0.005,0.404,0.018,0.607,0.023c0.618,2.676,1.042,5.353,1.264,8.014    c-0.439,0.045-0.871,0.095-1.313,0.139c-0.521,0.052-1.044,0.103-1.562,0.154c-1.643,0.157-3.298,0.306-4.965,0.446    c-0.642,0.054-1.277,0.104-1.912,0.155c-1.523,0.121-3.054,0.238-4.594,0.345c-13.688,0.95-25.264,1.14-32.32,1.14    C304.679,331.864,301.115,331.731,301.103,331.731z M491.078,334.375c-21.788,24.402-61.236,40.408-117.248,47.57    c-25.357,3.245-48.237,3.925-62.965,3.925c-5.963,0-9.977-0.116-11.427-0.166c-0.092-0.003-0.186-0.005-0.278-0.005h-2.581    c9.818-32.593,43.66-38.363,46.911-38.842c0.343-0.024,0.679-0.053,1.022-0.077c0.086-0.006,0.173-0.012,0.259-0.018    c0.262-0.018,0.525-0.038,0.789-0.056c0.58-0.042,1.161-0.085,1.747-0.129c0.148-0.011,0.299-0.024,0.447-0.035    c0.702-0.054,1.401-0.108,2.112-0.166c0.37-0.03,0.735-0.063,1.103-0.094c0.024-0.002,0.047-0.004,0.071-0.006    c0.335-0.028,0.672-0.057,1.008-0.086c0.536-0.046,1.074-0.094,1.615-0.142c0.472-0.043,0.948-0.087,1.423-0.132    c0.512-0.047,1.021-0.095,1.536-0.145c0.252-0.025,0.501-0.051,0.752-0.075c0.497-0.049,0.993-0.099,1.492-0.149    c0.427-0.044,0.854-0.088,1.283-0.133c0.804-0.085,1.61-0.172,2.421-0.262c0.224-0.025,0.448-0.049,0.672-0.075    c0.163-0.018,0.325-0.038,0.488-0.057c0.7-0.08,1.402-0.161,2.107-0.246c0.318-0.038,0.635-0.076,0.955-0.115    c0.969-0.118,1.939-0.239,2.916-0.366c0.024-0.003,0.047-0.005,0.072-0.009c4.972-0.646,10.194-1.421,15.537-2.352    c28.854-5.029,61.274-14.598,77.509-32.778c0.462-0.518,0.953-1.003,1.464-1.462c0.069-0.062,0.143-0.115,0.213-0.175    c0.057-0.049,0.117-0.094,0.174-0.142c0.409-0.347,0.824-0.687,1.26-0.998c0.06-0.043,0.123-0.081,0.183-0.123    c0.045-0.031,0.092-0.058,0.137-0.089c0.496-0.336,1.003-0.659,1.533-0.949c0.037-0.02,0.073-0.039,0.11-0.058    c0.004-0.002,0.009-0.004,0.013-0.006c0.611-0.328,1.241-0.629,1.895-0.895c0,0,0.001,0,0.001-0.001    c0.326-0.133,0.652-0.266,0.984-0.38c0.302-0.103,0.61-0.191,0.916-0.278c0.287-0.083,0.574-0.165,0.864-0.233    c0.353-0.083,0.707-0.152,1.063-0.215c0.253-0.045,0.505-0.087,0.759-0.122c0.383-0.052,0.768-0.092,1.154-0.12    c0.237-0.017,0.474-0.029,0.712-0.038c0.419-0.015,0.839-0.024,1.258-0.012c0.139,0.004,0.277,0.012,0.416,0.019    c0.453,0.024,0.905,0.062,1.357,0.117c0.155,0.019,0.309,0.041,0.462,0.063c0.426,0.063,0.849,0.142,1.271,0.234    c0.178,0.039,0.356,0.08,0.532,0.124c0.387,0.097,0.772,0.21,1.154,0.331c0.202,0.064,0.405,0.129,0.605,0.2    c0.35,0.125,0.696,0.266,1.04,0.412c0.217,0.092,0.434,0.182,0.648,0.282c0.327,0.154,0.647,0.326,0.966,0.499    c0.213,0.116,0.429,0.225,0.638,0.348c0.335,0.199,0.661,0.42,0.987,0.642c0.176,0.12,0.359,0.231,0.532,0.357    c0.49,0.359,0.97,0.742,1.433,1.155C497.353,314.592,498.032,326.587,491.078,334.375z" fill="#a1a1a1"/>
	</g>
</g>
<g>
</g>
<g>
</g>
<g>
</g>
<g>
</g>
<g>
</g>
<g>
</g>
<g>
</g>
<g>
</g>
<g>
</g>
<g>
</g>
<g>
</g>
<g>
</g>
<g>
</g>
<g>
</g>
<g>
</g>
</svg>
